<svg xmlns="http://www.w3.org/2000/svg" xmlns:xlink="http://www.w3.org/1999/xlink" width="500" zoomAndPan="magnify" viewBox="0 0 375 374.999991" height="500" preserveAspectRatio="xMidYMid meet" version="1.0"><defs><clipPath id="6116319358"><path d="M 137 19.363281 L 356.25 19.363281 L 356.25 239 L 137 239 Z M 137 19.363281 " clip-rule="nonzero"/></clipPath><clipPath id="58514052ea"><path d="M 18.75 136 L 238 136 L 238 355.363281 L 18.75 355.363281 Z M 18.75 136 " clip-rule="nonzero"/></clipPath></defs><g clip-path="url(#6116319358)"><path fill="#67dcff" d="M 356.148438 187.824219 C 356.148438 215.777344 333.523438 238.402344 305.574219 238.402344 L 201.992188 238.402344 C 166.183594 238.402344 137.109375 209.328125 137.109375 173.523438 L 137.109375 69.941406 C 137.109375 41.988281 159.734375 19.363281 187.6875 19.363281 C 215.640625 19.363281 238.261719 41.988281 238.261719 69.941406 L 238.261719 137.25 L 305.574219 137.25 C 333.523438 137.25 356.148438 159.964844 356.148438 187.824219 Z M 356.148438 187.824219 " fill-opacity="1" fill-rule="nonzero"/></g><g clip-path="url(#58514052ea)"><path fill="#1e9df1" d="M 18.851562 187.171875 C 18.851562 159.21875 41.476562 136.59375 69.425781 136.59375 L 173.007812 136.59375 C 208.816406 136.59375 237.890625 165.667969 237.890625 201.472656 L 237.890625 305.058594 C 237.890625 333.007812 215.265625 355.632812 187.3125 355.632812 C 159.359375 355.632812 136.738281 333.007812 136.738281 305.058594 L 136.738281 237.746094 L 69.425781 237.746094 C 41.476562 237.746094 18.851562 215.125 18.851562 187.171875 Z M 18.851562 187.171875 " fill-opacity="1" fill-rule="nonzero"/></g><path fill="#1592e5" d="M 237.890625 201.472656 L 237.890625 238.402344 L 201.992188 238.402344 C 166.183594 238.402344 137.109375 209.328125 137.109375 173.523438 L 137.109375 136.59375 L 173.007812 136.59375 C 208.816406 136.59375 237.890625 165.667969 237.890625 201.472656 Z M 237.890625 201.472656 " fill-opacity="1" fill-rule="nonzero"/></svg>