<svg xmlns="http://www.w3.org/2000/svg" xmlns:xlink="http://www.w3.org/1999/xlink" width="2000" zoomAndPan="magnify" viewBox="0 0 1500 337.499995" height="450" preserveAspectRatio="xMidYMid meet" version="1.0"><defs><g/><clipPath id="6be9a6efea"><path d="M 1.109375 0 L 1498.890625 0 L 1498.890625 337 L 1.109375 337 Z M 1.109375 0 " clip-rule="nonzero"/></clipPath><clipPath id="8321cceab6"><path d="M 130 52.082031 L 281.945312 52.082031 L 281.945312 204 L 130 204 Z M 130 52.082031 " clip-rule="nonzero"/></clipPath><clipPath id="51e9c43dbc"><path d="M 48.289062 133 L 201 133 L 201 284.988281 L 48.289062 284.988281 Z M 48.289062 133 " clip-rule="nonzero"/></clipPath><clipPath id="483f3331d6"><path d="M 0.671875 0.804688 L 690 0.804688 L 690 245.960938 L 0.671875 245.960938 Z M 0.671875 0.804688 " clip-rule="nonzero"/></clipPath><clipPath id="482719fecb"><rect x="0" width="690" y="0" height="246"/></clipPath><clipPath id="c7d358ed7e"><path d="M 693 0.804688 L 809 0.804688 L 809 245.960938 L 693 245.960938 Z M 693 0.804688 " clip-rule="nonzero"/></clipPath><clipPath id="898f2b7626"><rect x="0" width="116" y="0" height="246"/></clipPath><clipPath id="0f78815af6"><path d="M 811 0.804688 L 1120.292969 0.804688 L 1120.292969 245.960938 L 811 245.960938 Z M 811 0.804688 " clip-rule="nonzero"/></clipPath><clipPath id="1398d21cde"><rect x="0" width="310" y="0" height="246"/></clipPath><clipPath id="2376e91bf1"><rect x="0" width="1121" y="0" height="246"/></clipPath></defs><g clip-path="url(#6be9a6efea)"><path fill="#ffffff" d="M 1.109375 0 L 1498.890625 0 L 1498.890625 337 L 1.109375 337 Z M 1.109375 0 " fill-opacity="1" fill-rule="nonzero"/><path fill="#ffffff" d="M 1.109375 0 L 1498.890625 0 L 1498.890625 337 L 1.109375 337 Z M 1.109375 0 " fill-opacity="1" fill-rule="nonzero"/></g><g clip-path="url(#8321cceab6)"><path fill="#67dcff" d="M 281.894531 168.722656 C 281.894531 188.074219 266.230469 203.738281 246.878906 203.738281 L 175.160156 203.738281 C 150.371094 203.738281 130.242188 183.609375 130.242188 158.820312 L 130.242188 87.101562 C 130.242188 67.746094 145.902344 52.082031 165.257812 52.082031 C 184.609375 52.082031 200.273438 67.746094 200.273438 87.101562 L 200.273438 133.703125 L 246.878906 133.703125 C 266.230469 133.703125 281.894531 149.433594 281.894531 168.722656 Z M 281.894531 168.722656 " fill-opacity="1" fill-rule="nonzero"/></g><g clip-path="url(#51e9c43dbc)"><path fill="#1e9df1" d="M 48.359375 168.269531 C 48.359375 148.914062 64.023438 133.25 83.378906 133.25 L 155.09375 133.25 C 179.886719 133.25 200.015625 153.382812 200.015625 178.171875 L 200.015625 249.890625 C 200.015625 269.242188 184.351562 284.90625 165 284.90625 C 145.644531 284.90625 129.980469 269.242188 129.980469 249.890625 L 129.980469 203.285156 L 83.378906 203.285156 C 64.023438 203.285156 48.359375 187.621094 48.359375 168.269531 Z M 48.359375 168.269531 " fill-opacity="1" fill-rule="nonzero"/></g><path fill="#1592e5" d="M 200.015625 178.171875 L 200.015625 203.738281 L 175.160156 203.738281 C 150.371094 203.738281 130.242188 183.609375 130.242188 158.820312 L 130.242188 133.25 L 155.09375 133.25 C 179.886719 133.25 200.015625 153.382812 200.015625 178.171875 Z M 200.015625 178.171875 " fill-opacity="1" fill-rule="nonzero"/><g transform="matrix(1, 0, 0, 1, 323, 50)"><g clip-path="url(#2376e91bf1)"><g clip-path="url(#483f3331d6)"><g><g clip-path="url(#482719fecb)"><g fill="#1592e5" fill-opacity="1"><g transform="translate(0.885819, 184.379481)"><g><path d="M 96.296875 -10.515625 C 93.847656 -9.046875 91.238281 -8.3125 88.46875 -8.3125 C 85.539062 -8.3125 82.726562 -9.003906 80.03125 -10.390625 C 77.34375 -11.773438 75.347656 -13.441406 74.046875 -15.390625 L 47.40625 -70.625 L 47.40625 -20.53125 C 47.894531 -17.925781 48.257812 -15.765625 48.5 -14.046875 C 48.75 -12.335938 49.28125 -11.078125 50.09375 -10.265625 C 48.632812 -7.816406 47.210938 -5.859375 45.828125 -4.390625 C 44.441406 -2.929688 42.484375 -1.832031 39.953125 -1.09375 C 37.429688 -0.363281 33.5625 0 28.34375 0 C 23.945312 0 20.238281 -0.609375 17.21875 -1.828125 C 14.207031 -3.054688 12.378906 -5.460938 11.734375 -9.046875 L 11.734375 -89.203125 C 11.734375 -100.117188 11.609375 -109.035156 11.359375 -115.953125 C 11.117188 -122.878906 10.179688 -127 8.546875 -128.3125 C 14.421875 -135.800781 22.242188 -139.546875 32.015625 -139.546875 L 33 -139.546875 C 36.09375 -139.378906 38.65625 -138.6875 40.6875 -137.46875 C 42.726562 -136.25 45.050781 -134.007812 47.65625 -130.75 L 86.265625 -60.609375 L 124.640625 -130.75 C 127.242188 -134.007812 129.5625 -136.25 131.59375 -137.46875 C 133.632812 -138.6875 136.203125 -139.378906 139.296875 -139.546875 L 140.28125 -139.546875 C 150.050781 -139.546875 157.867188 -135.800781 163.734375 -128.3125 C 162.109375 -127 161.132812 -122.878906 160.8125 -115.953125 C 160.488281 -109.035156 160 -100.117188 159.34375 -89.203125 L 159.34375 -9.046875 C 159.34375 -5.460938 157.875 -3.054688 154.9375 -1.828125 C 152.007812 -0.609375 148.347656 0 143.953125 0 C 138.734375 0 134.859375 -0.363281 132.328125 -1.09375 C 129.804688 -1.832031 127.894531 -2.929688 126.59375 -4.390625 C 125.289062 -5.859375 123.828125 -7.816406 122.203125 -10.265625 C 123.015625 -11.078125 123.539062 -12.335938 123.78125 -14.046875 C 124.03125 -15.765625 124.398438 -17.925781 124.890625 -20.53125 L 124.890625 -70.625 Z M 96.296875 -10.515625 "/></g></g></g><g fill="#1592e5" fill-opacity="1"><g transform="translate(171.958503, 184.379481)"><g><path d="M 65.015625 -39.828125 C 61.097656 -39.828125 57.222656 -39.867188 53.390625 -39.953125 C 49.566406 -40.035156 46.023438 -40.078125 42.765625 -40.078125 C 42.765625 -34.867188 44.066406 -30.957031 46.671875 -28.34375 C 49.285156 -25.738281 53.769531 -24.4375 60.125 -24.4375 L 67.9375 -24.4375 C 70.0625 -24.4375 72.503906 -24.722656 75.265625 -25.296875 C 78.035156 -25.867188 80.644531 -26.925781 83.09375 -28.46875 C 85.539062 -30.019531 87.085938 -32.179688 87.734375 -34.953125 C 87.734375 -35.441406 88.019531 -35.765625 88.59375 -35.921875 C 89.164062 -36.085938 89.695312 -36.171875 90.1875 -36.171875 C 94.414062 -36.171875 97.507812 -34.703125 99.46875 -31.765625 C 101.425781 -28.835938 102.40625 -25.253906 102.40625 -21.015625 C 102.40625 -14.335938 100.285156 -9.410156 96.046875 -6.234375 C 91.804688 -3.054688 86.46875 -1.019531 80.03125 -0.125 C 73.601562 0.769531 67.128906 1.21875 60.609375 1.21875 C 43.992188 1.21875 30.753906 -3.015625 20.890625 -11.484375 C 11.035156 -19.953125 6.109375 -33.554688 6.109375 -52.296875 C 6.109375 -60.773438 7.613281 -68.554688 10.625 -75.640625 C 13.644531 -82.722656 19.0625 -88.382812 26.875 -92.625 C 34.695312 -96.863281 45.695312 -98.984375 59.875 -98.984375 C 74.695312 -98.984375 85.53125 -96.945312 92.375 -92.875 C 99.21875 -88.800781 102.640625 -81.304688 102.640625 -70.390625 C 102.640625 -62.398438 100.804688 -56.207031 97.140625 -51.8125 C 93.472656 -47.414062 88.789062 -44.316406 83.09375 -42.515625 C 77.394531 -40.722656 71.367188 -39.828125 65.015625 -39.828125 Z M 60.125 -73.3125 C 56.050781 -73.3125 52.34375 -72.457031 49 -70.75 C 45.65625 -69.039062 43.414062 -65.007812 42.28125 -58.65625 C 46.1875 -58.8125 50.460938 -59.050781 55.109375 -59.375 C 59.753906 -59.707031 63.742188 -60.363281 67.078125 -61.34375 C 70.421875 -62.320312 72.09375 -63.867188 72.09375 -65.984375 C 72.09375 -68.753906 71.441406 -70.664062 70.140625 -71.71875 C 68.835938 -72.78125 65.5 -73.3125 60.125 -73.3125 Z M 60.125 -73.3125 "/></g></g></g><g fill="#1592e5" fill-opacity="1"><g transform="translate(281.933819, 184.379481)"><g><path d="M 112.171875 -10.265625 C 110.703125 -7.816406 109.191406 -5.738281 107.640625 -4.03125 C 106.097656 -2.320312 103.941406 -1.019531 101.171875 -0.125 C 98.398438 0.769531 94.410156 1.21875 89.203125 1.21875 C 84.804688 1.21875 81.140625 0.609375 78.203125 -0.609375 C 75.273438 -1.828125 73.8125 -4.234375 73.8125 -7.828125 C 70.550781 -4.890625 66.921875 -2.769531 62.921875 -1.46875 C 58.929688 -0.164062 55.1875 0.601562 51.6875 0.84375 C 48.1875 1.09375 45.457031 1.21875 43.5 1.21875 C 35.519531 1.21875 29.082031 -0.203125 24.1875 -3.046875 C 19.300781 -5.898438 15.554688 -9.726562 12.953125 -14.53125 C 10.347656 -19.34375 8.554688 -24.640625 7.578125 -30.421875 C 6.597656 -36.210938 6.109375 -42.117188 6.109375 -48.140625 L 6.109375 -51.328125 C 6.429688 -63.703125 8.222656 -73.3125 11.484375 -80.15625 C 14.742188 -87 19.101562 -91.847656 24.5625 -94.703125 C 30.019531 -97.554688 36.25 -98.984375 43.25 -98.984375 L 44.96875 -98.984375 C 47.082031 -98.984375 49.972656 -98.738281 53.640625 -98.25 C 57.304688 -97.757812 60.972656 -96.863281 64.640625 -95.5625 C 68.304688 -94.257812 71.28125 -92.140625 73.5625 -89.203125 C 73.5625 -100.117188 73.4375 -109.035156 73.1875 -115.953125 C 72.945312 -122.878906 72.015625 -127 70.390625 -128.3125 C 76.253906 -135.800781 84.070312 -139.546875 93.84375 -139.546875 L 94.828125 -139.546875 C 101.503906 -139.378906 105.78125 -138.035156 107.65625 -135.515625 C 109.53125 -132.992188 110.46875 -129.125 110.46875 -123.90625 L 110.46875 -19.3125 C 110.46875 -16.695312 110.546875 -14.738281 110.703125 -13.4375 C 110.867188 -12.132812 111.359375 -11.078125 112.171875 -10.265625 Z M 54.015625 -24.4375 C 55.148438 -24.4375 56.976562 -24.476562 59.5 -24.5625 C 62.03125 -24.644531 64.679688 -24.890625 67.453125 -25.296875 C 70.222656 -25.703125 72.421875 -26.3125 74.046875 -27.125 L 74.046875 -63.046875 C 67.859375 -66.796875 62.320312 -68.671875 57.4375 -68.671875 C 53.03125 -68.671875 49.398438 -67.285156 46.546875 -64.515625 C 43.703125 -61.742188 42.195312 -57.832031 42.03125 -52.78125 L 42.03125 -48.640625 C 42.03125 -40.160156 42.882812 -34.046875 44.59375 -30.296875 C 46.3125 -26.554688 49.453125 -24.601562 54.015625 -24.4375 Z M 54.015625 -24.4375 "/></g></g></g><g fill="#1592e5" fill-opacity="1"><g transform="translate(403.884171, 184.379481)"><g><path d="M 44.71875 -119.5 C 44.71875 -117.21875 43.660156 -115.34375 41.546875 -113.875 C 39.429688 -112.414062 36.988281 -111.359375 34.21875 -110.703125 C 31.445312 -110.054688 29.082031 -109.734375 27.125 -109.734375 C 23.375 -109.734375 20.238281 -109.851562 17.71875 -110.09375 C 15.195312 -110.34375 12.550781 -111.035156 9.78125 -112.171875 L 9.78125 -127.8125 C 9.78125 -134.976562 8.960938 -139.460938 7.328125 -141.265625 C 9.609375 -144.191406 12.539062 -146.0625 16.125 -146.875 C 19.707031 -147.6875 23.375 -148.09375 27.125 -148.09375 C 29.238281 -148.09375 31.640625 -147.6875 34.328125 -146.875 C 37.023438 -146.0625 39.390625 -144.921875 41.421875 -143.453125 C 43.460938 -141.992188 44.5625 -140.285156 44.71875 -138.328125 Z M 10.75 -10.75 C 10.101562 -36.976562 9.816406 -56.851562 9.890625 -70.375 C 9.972656 -83.90625 9.203125 -91.320312 7.578125 -92.625 C 10.835938 -95.070312 13.523438 -96.535156 15.640625 -97.015625 C 17.753906 -97.503906 21.257812 -97.75 26.15625 -97.75 L 27.125 -97.75 C 33.800781 -97.59375 38.441406 -96.25 41.046875 -93.71875 C 43.660156 -91.195312 44.96875 -87.328125 44.96875 -82.109375 L 44.96875 -19.3125 C 45.457031 -16.695312 45.820312 -14.738281 46.0625 -13.4375 C 46.3125 -12.132812 46.84375 -11.078125 47.65625 -10.265625 C 45.375 -6.679688 42.5625 -3.867188 39.21875 -1.828125 C 35.882812 0.203125 30.304688 1.21875 22.484375 1.21875 C 18.085938 1.21875 15.070312 0.117188 13.4375 -2.078125 C 11.8125 -4.273438 10.914062 -7.164062 10.75 -10.75 Z M 10.75 -10.75 "/></g></g></g><g fill="#1592e5" fill-opacity="1"><g transform="translate(458.871835, 184.379481)"><g><path d="M 40.5625 -47.171875 C 40.726562 -37.554688 42.113281 -31.363281 44.71875 -28.59375 C 47.332031 -25.820312 51.816406 -24.4375 58.171875 -24.4375 L 63.546875 -24.4375 C 65.660156 -24.4375 68.347656 -24.722656 71.609375 -25.296875 C 74.867188 -25.867188 77.921875 -26.925781 80.765625 -28.46875 C 83.617188 -30.019531 85.375 -32.179688 86.03125 -34.953125 C 86.03125 -35.441406 86.3125 -35.765625 86.875 -35.921875 C 87.445312 -36.085938 87.976562 -36.171875 88.46875 -36.171875 C 92.707031 -36.171875 95.800781 -34.703125 97.75 -31.765625 C 99.707031 -28.835938 100.6875 -25.253906 100.6875 -21.015625 C 100.6875 -14.335938 98.523438 -9.410156 94.203125 -6.234375 C 89.890625 -3.054688 84.515625 -1.019531 78.078125 -0.125 C 71.640625 0.769531 65.164062 1.21875 58.65625 1.21875 C 47.570312 1.21875 38 -0.367188 29.9375 -3.546875 C 21.875 -6.722656 15.679688 -11.972656 11.359375 -19.296875 C 7.046875 -26.628906 4.890625 -36.488281 4.890625 -48.875 C 4.890625 -67.613281 9.410156 -80.648438 18.453125 -87.984375 C 27.492188 -95.316406 40.320312 -98.984375 56.9375 -98.984375 C 61.832031 -98.984375 66.882812 -98.65625 72.09375 -98 C 77.3125 -97.34375 82.117188 -96.238281 86.515625 -94.6875 C 90.910156 -93.144531 94.492188 -90.90625 97.265625 -87.96875 C 100.035156 -85.039062 101.421875 -81.296875 101.421875 -76.734375 C 101.421875 -73.960938 100.929688 -71.03125 99.953125 -67.9375 C 98.972656 -64.84375 97.546875 -62.195312 95.671875 -60 C 93.804688 -57.800781 91.40625 -56.703125 88.46875 -56.703125 C 87 -56.703125 86.265625 -57.351562 86.265625 -58.65625 C 85.617188 -61.425781 83.867188 -63.539062 81.015625 -65 C 78.160156 -66.46875 74.984375 -67.445312 71.484375 -67.9375 C 67.984375 -68.425781 64.847656 -68.671875 62.078125 -68.671875 C 54.085938 -68.671875 48.503906 -66.835938 45.328125 -63.171875 C 42.148438 -59.503906 40.5625 -54.171875 40.5625 -47.171875 Z M 40.5625 -47.171875 "/></g></g></g><g fill="#1592e5" fill-opacity="1"><g transform="translate(567.625175, 184.379481)"><g><path d="M 109.96875 -23.953125 C 109.96875 -18.898438 110.296875 -15.597656 110.953125 -14.046875 C 111.609375 -12.503906 112.503906 -11.242188 113.640625 -10.265625 C 110.546875 -6.515625 107.207031 -3.660156 103.625 -1.703125 C 100.039062 0.242188 95.800781 1.21875 90.90625 1.21875 C 86.507812 1.21875 82.84375 0.609375 79.90625 -0.609375 C 76.976562 -1.828125 75.515625 -4.234375 75.515625 -7.828125 C 72.253906 -4.890625 68.585938 -2.769531 64.515625 -1.46875 C 60.441406 -0.164062 56.613281 0.601562 53.03125 0.84375 C 49.445312 1.09375 46.675781 1.21875 44.71875 1.21875 C 34.132812 1.21875 26.148438 -0.816406 20.765625 -4.890625 C 15.390625 -8.960938 11.804688 -14.335938 10.015625 -21.015625 C 8.222656 -27.691406 7.328125 -35.023438 7.328125 -43.015625 L 7.328125 -46.1875 C 7.816406 -64.601562 11.238281 -78.003906 17.59375 -86.390625 C 23.945312 -94.785156 32.335938 -98.984375 42.765625 -98.984375 C 47.492188 -98.984375 52.75 -98.328125 58.53125 -97.015625 C 64.3125 -95.710938 69.972656 -91.722656 75.515625 -85.046875 L 75.515625 -86.03125 C 76.171875 -90.101562 77.351562 -93.359375 79.0625 -95.796875 C 80.769531 -98.242188 83.660156 -99.46875 87.734375 -99.46875 C 92.953125 -99.46875 97.800781 -98.53125 102.28125 -96.65625 C 106.757812 -94.78125 110.546875 -91.804688 113.640625 -87.734375 C 112.335938 -86.429688 111.398438 -83.90625 110.828125 -80.15625 C 110.253906 -76.414062 109.882812 -72.546875 109.71875 -68.546875 C 109.5625 -64.554688 109.484375 -61.664062 109.484375 -59.875 Z M 55.234375 -24.4375 C 56.367188 -24.4375 58.195312 -24.476562 60.71875 -24.5625 C 63.25 -24.644531 65.898438 -24.890625 68.671875 -25.296875 C 71.441406 -25.703125 73.640625 -26.3125 75.265625 -27.125 L 75.265625 -63.046875 C 69.078125 -66.796875 63.539062 -68.671875 58.65625 -68.671875 C 54.257812 -68.671875 50.632812 -67.285156 47.78125 -64.515625 C 44.925781 -61.742188 43.414062 -57.832031 43.25 -52.78125 L 43.25 -48.640625 C 43.25 -40.160156 44.101562 -34.046875 45.8125 -30.296875 C 47.53125 -26.554688 50.671875 -24.601562 55.234375 -24.4375 Z M 55.234375 -24.4375 "/></g></g></g></g></g></g><g clip-path="url(#c7d358ed7e)"><g transform="matrix(1, 0, 0, 1, 693, 0)"><g clip-path="url(#898f2b7626)"><g fill="#1e9df1" fill-opacity="1"><g transform="translate(0.0133598, 184.379481)"><g><path d="M 46.1875 -25.90625 L 90.1875 -25.90625 C 92.789062 -25.90625 95.148438 -25.945312 97.265625 -26.03125 C 99.378906 -26.113281 101.171875 -26.316406 102.640625 -26.640625 C 106.390625 -25.171875 109.28125 -23.617188 111.3125 -21.984375 C 113.351562 -20.359375 114.375 -17.675781 114.375 -13.9375 C 114.375 -9.039062 112.988281 -5.492188 110.21875 -3.296875 C 107.445312 -1.097656 103.863281 0 99.46875 0 L 27.125 0 C 22.726562 0 19.0625 -0.609375 16.125 -1.828125 C 13.195312 -3.054688 11.734375 -5.460938 11.734375 -9.046875 L 11.734375 -89.203125 C 11.078125 -100.117188 10.585938 -109.035156 10.265625 -115.953125 C 9.941406 -122.878906 8.960938 -127 7.328125 -128.3125 C 13.191406 -135.800781 21.015625 -139.546875 30.796875 -139.546875 L 31.765625 -139.546875 C 38.453125 -139.378906 42.523438 -138.035156 43.984375 -135.515625 C 45.453125 -132.992188 46.1875 -129.125 46.1875 -123.90625 Z M 46.1875 -25.90625 "/></g></g></g></g></g></g><g clip-path="url(#0f78815af6)"><g transform="matrix(1, 0, 0, 1, 811, 0)"><g clip-path="url(#1398d21cde)"><g fill="#67dcff" fill-opacity="1"><g transform="translate(1.17319, 184.379481)"><g><path d="M 44.71875 -119.5 C 44.71875 -117.21875 43.660156 -115.34375 41.546875 -113.875 C 39.429688 -112.414062 36.988281 -111.359375 34.21875 -110.703125 C 31.445312 -110.054688 29.082031 -109.734375 27.125 -109.734375 C 23.375 -109.734375 20.238281 -109.851562 17.71875 -110.09375 C 15.195312 -110.34375 12.550781 -111.035156 9.78125 -112.171875 L 9.78125 -127.8125 C 9.78125 -134.976562 8.960938 -139.460938 7.328125 -141.265625 C 9.609375 -144.191406 12.539062 -146.0625 16.125 -146.875 C 19.707031 -147.6875 23.375 -148.09375 27.125 -148.09375 C 29.238281 -148.09375 31.640625 -147.6875 34.328125 -146.875 C 37.023438 -146.0625 39.390625 -144.921875 41.421875 -143.453125 C 43.460938 -141.992188 44.5625 -140.285156 44.71875 -138.328125 Z M 10.75 -10.75 C 10.101562 -36.976562 9.816406 -56.851562 9.890625 -70.375 C 9.972656 -83.90625 9.203125 -91.320312 7.578125 -92.625 C 10.835938 -95.070312 13.523438 -96.535156 15.640625 -97.015625 C 17.753906 -97.503906 21.257812 -97.75 26.15625 -97.75 L 27.125 -97.75 C 33.800781 -97.59375 38.441406 -96.25 41.046875 -93.71875 C 43.660156 -91.195312 44.96875 -87.328125 44.96875 -82.109375 L 44.96875 -19.3125 C 45.457031 -16.695312 45.820312 -14.738281 46.0625 -13.4375 C 46.3125 -12.132812 46.84375 -11.078125 47.65625 -10.265625 C 45.375 -6.679688 42.5625 -3.867188 39.21875 -1.828125 C 35.882812 0.203125 30.304688 1.21875 22.484375 1.21875 C 18.085938 1.21875 15.070312 0.117188 13.4375 -2.078125 C 11.8125 -4.273438 10.914062 -7.164062 10.75 -10.75 Z M 10.75 -10.75 "/></g></g></g><g fill="#67dcff" fill-opacity="1"><g transform="translate(56.160842, 184.379481)"><g><path d="M 48.140625 -78.6875 C 50.265625 -83.738281 53.078125 -87.648438 56.578125 -90.421875 C 60.078125 -93.191406 63.820312 -95.1875 67.8125 -96.40625 C 71.8125 -97.632812 75.476562 -98.367188 78.8125 -98.609375 C 82.15625 -98.859375 84.640625 -98.984375 86.265625 -98.984375 C 92.617188 -98.984375 97.832031 -97.351562 101.90625 -94.09375 C 105.976562 -90.832031 109.03125 -86.675781 111.0625 -81.625 C 113.101562 -76.570312 114.125 -71.441406 114.125 -66.234375 C 114.125 -61.671875 114.082031 -56.941406 114 -52.046875 C 113.925781 -47.160156 113.890625 -42.4375 113.890625 -37.875 C 113.890625 -35.757812 113.96875 -32.910156 114.125 -29.328125 C 114.289062 -25.742188 114.535156 -22.972656 114.859375 -21.015625 C 115.191406 -18.898438 115.96875 -17.066406 117.1875 -15.515625 C 118.40625 -13.972656 119.75 -12.546875 121.21875 -11.234375 C 118.125 -7.160156 114.375 -4.269531 109.96875 -2.5625 C 105.570312 -0.851562 100.769531 0 95.5625 0 C 91.488281 0 87.738281 -1.21875 84.3125 -3.65625 C 80.894531 -6.101562 78.941406 -9.363281 78.453125 -13.4375 C 78.285156 -15.226562 78.160156 -16.976562 78.078125 -18.6875 C 77.992188 -20.40625 77.953125 -22.078125 77.953125 -23.703125 C 77.953125 -29.242188 78.035156 -33.96875 78.203125 -37.875 C 78.367188 -41.789062 78.453125 -46.757812 78.453125 -52.78125 C 78.453125 -58.976562 77.347656 -63.132812 75.140625 -65.25 C 72.941406 -67.363281 69.804688 -68.421875 65.734375 -68.421875 C 60.847656 -68.421875 57.140625 -67.238281 54.609375 -64.875 C 52.085938 -62.519531 50.335938 -59.710938 49.359375 -56.453125 C 48.390625 -53.191406 47.90625 -50.257812 47.90625 -47.65625 C 47.738281 -46.675781 47.65625 -45.207031 47.65625 -43.25 C 47.65625 -41.300781 47.65625 -39.835938 47.65625 -38.859375 L 47.65625 -2.9375 C 45.050781 -1.789062 42.160156 -1.015625 38.984375 -0.609375 C 35.804688 -0.203125 32.585938 0 29.328125 0 C 25.253906 0 21.503906 -0.691406 18.078125 -2.078125 C 14.660156 -3.460938 12.546875 -6.84375 11.734375 -12.21875 C 11.734375 -16.945312 11.769531 -20.039062 11.84375 -21.5 C 11.925781 -22.96875 11.96875 -23.945312 11.96875 -24.4375 C 11.96875 -24.925781 11.96875 -25.984375 11.96875 -27.609375 L 12.21875 -59.875 C 12.21875 -61.988281 12.132812 -64.0625 11.96875 -66.09375 C 11.8125 -68.132812 11.566406 -70.132812 11.234375 -72.09375 C 11.078125 -74.207031 10.347656 -76.078125 9.046875 -77.703125 C 7.742188 -79.335938 6.359375 -80.726562 4.890625 -81.875 C 7.984375 -85.945312 11.769531 -89.609375 16.25 -92.859375 C 20.726562 -96.117188 25.492188 -97.75 30.546875 -97.75 C 34.785156 -97.75 38.570312 -96.523438 41.90625 -94.078125 C 45.25 -91.640625 47.164062 -88.382812 47.65625 -84.3125 C 47.820312 -83.664062 47.90625 -83.015625 47.90625 -82.359375 C 47.90625 -82.359375 47.941406 -81.910156 48.015625 -81.015625 C 48.097656 -80.117188 48.140625 -79.34375 48.140625 -78.6875 Z M 48.140625 -78.6875 "/></g></g></g><g fill="#67dcff" fill-opacity="1"><g transform="translate(182.26583, 184.379481)"><g><path d="M 104.84375 -41.546875 C 106.3125 -39.265625 107.859375 -36.695312 109.484375 -33.84375 C 111.117188 -31 112.992188 -28.4375 115.109375 -26.15625 C 117.222656 -23.875 119.664062 -22.488281 122.4375 -22 C 122.4375 -14.988281 120.195312 -9.523438 115.71875 -5.609375 C 111.238281 -1.703125 105.660156 0.25 98.984375 0.25 C 94.421875 0.25 90.34375 -1.703125 86.75 -5.609375 C 83.164062 -9.523438 79.910156 -13.925781 76.984375 -18.8125 L 67.9375 -33.484375 C 65.820312 -37.066406 64.070312 -39.796875 62.6875 -41.671875 C 61.300781 -43.546875 58.976562 -44.484375 55.71875 -44.484375 C 55.394531 -44.484375 54.5 -44.484375 53.03125 -44.484375 C 51.5625 -44.484375 50.664062 -44.398438 50.34375 -44.234375 C 50.175781 -43.253906 50.09375 -42.273438 50.09375 -41.296875 C 50.09375 -40.316406 50.09375 -39.34375 50.09375 -38.375 L 50.09375 -2.6875 C 47.488281 -1.550781 44.597656 -0.773438 41.421875 -0.359375 C 38.242188 0.046875 35.023438 0.25 31.765625 0.25 C 27.691406 0.25 23.941406 -0.441406 20.515625 -1.828125 C 17.097656 -3.210938 14.984375 -6.59375 14.171875 -11.96875 C 14.171875 -16.695312 14.210938 -19.796875 14.296875 -21.265625 C 14.378906 -22.734375 14.421875 -23.707031 14.421875 -24.1875 C 14.421875 -24.675781 14.421875 -25.738281 14.421875 -27.375 L 14.65625 -100.4375 C 14.65625 -102.5625 14.570312 -104.84375 14.40625 -107.28125 C 14.25 -109.726562 14.007812 -111.929688 13.6875 -113.890625 C 13.519531 -116.003906 12.785156 -117.875 11.484375 -119.5 C 10.179688 -121.132812 8.796875 -122.519531 7.328125 -123.65625 C 10.421875 -127.726562 14.207031 -131.394531 18.6875 -134.65625 C 23.175781 -137.914062 27.945312 -139.546875 33 -139.546875 C 37.226562 -139.546875 41.007812 -138.320312 44.34375 -135.875 C 47.6875 -133.4375 49.601562 -130.179688 50.09375 -126.109375 C 50.425781 -124.472656 50.59375 -122.800781 50.59375 -121.09375 C 50.59375 -119.382812 50.59375 -117.632812 50.59375 -115.84375 L 50.59375 -67.703125 L 61.59375 -67.703125 L 68.1875 -78.453125 C 71.113281 -83.335938 74.367188 -87.734375 77.953125 -91.640625 C 81.546875 -95.554688 85.625 -97.515625 90.1875 -97.515625 C 96.863281 -97.515625 102.316406 -95.191406 106.546875 -90.546875 C 110.785156 -85.898438 113.148438 -80.726562 113.640625 -75.03125 C 110.867188 -74.539062 108.425781 -73.15625 106.3125 -70.875 C 104.195312 -68.59375 102.28125 -66.023438 100.5625 -63.171875 C 98.851562 -60.316406 97.347656 -57.753906 96.046875 -55.484375 L 95.0625 -53.765625 C 96.851562 -52.140625 98.523438 -50.304688 100.078125 -48.265625 C 101.628906 -46.234375 103.21875 -43.992188 104.84375 -41.546875 Z M 104.84375 -41.546875 "/></g></g></g></g></g></g></g></g></svg>